<svg xmlns="http://www.w3.org/2000/svg" viewBox="0 0 512 512"><path fill="#859eff" d="M476.38749,247.72379c-17.53009-16.297-56.23833-52.00529-71.51638-63.87075-8.23359-6.39446-21.70866.91511-15.20226,13.625l15.95528,35.82023-126.92727.0035-.00377-126.92591,35.82022,15.955c12.47284,6.3853,20.17781-6.7645,13.62475-15.202-11.86545-15.27832-47.57348-53.98629-63.87048-71.51639a11.2767,11.2767,0,0,0-16.54378,0c-16.297,17.5301-52.0053,56.23807-63.87075,71.51639-6.3942,8.23359.91511,21.70865,13.625,15.202l35.82022-15.955.00351,126.92726-126.92592.00378,15.955-35.82023c6.38529-12.47283-6.76451-20.1778-15.202-13.625-15.27805,11.86546-53.98628,47.57376-71.51638,63.87075a11.27671,11.27671,0,0,0,0,16.54379c17.5301,16.297,56.23833,52.005,71.51638,63.87048,8.2336,6.39446,21.70866-.91484,15.202-13.62475l-15.955-35.82023,126.92727-.00377.00377,126.92618L197.4867,389.66884c-12.47284-6.385-20.1778,6.76477-13.62475,15.20226,11.86545,15.27805,47.57348,53.98629,63.87048,71.51639a11.2767,11.2767,0,0,0,16.54378,0c16.297-17.5301,52.0053-56.23834,63.87075-71.51639,6.3942-8.23359-.91511-21.70865-13.625-15.20226l-35.82022,15.95528-.00351-126.92726,126.92592-.00378-15.95528,35.82023c-6.385,12.47283,6.76477,20.1778,15.20226,13.62475,15.27805-11.86546,53.98629-47.57376,71.51638-63.87075A11.27639,11.27639,0,0,0,476.38749,247.72379Z"/><path fill="#4545ff" d="M242.23926,481.49414c-18.98144-20.418-52.57617-56.92578-64.30078-72.023-11.49741-14.8027,3.35473-36.30753,22.76953-26.57764l25.09864,11.1792-.00391-107.87451-107.876.00293,11.17969,25.09912c9.83171,19.61913-11.94019,34.14131-26.57812,22.76953C87.43458,322.34766,50.92481,288.752,30.50587,269.76953a18.7904,18.7904,0,0,1,0-27.52978c20.41992-18.98389,56.93066-52.58106,72.02246-64.30127,14.91149-11.57693,36.25859,3.44617,26.57812,22.769l-11.17969,25.09912,107.875-.00342-.0039-107.87646-25.09864,11.18017c-19.62082,9.82859-34.13694-11.93985-22.76953-26.57861,11.72266-15.09424,45.31836-51.60352,64.30078-72.02246a18.78132,18.78132,0,0,1,27.53028,0c18.98242,20.41894,52.57812,56.92822,64.30078,72.023,11.57227,14.89908-3.44442,36.25922-22.76953,26.57764l-25.09863-11.1792.0039,107.87451,107.876-.00293-11.17969-25.09912c-9.75707-19.46568,11.82185-34.231,26.57813-22.77,15.09179,11.72021,51.60253,45.31738,72.02246,64.30078a18.79059,18.79059,0,0,1,0,27.52978c-20.416,18.98047-56.92188,52.57373-72.02246,64.30127-14.91421,11.58556-36.2586-3.44617-26.57813-22.769l11.17969-25.09912-107.875.00342.0039,107.87646,25.09864-11.18017c19.48047-9.75941,34.21785,11.83565,22.76953,26.57861-11.72461,15.09668-45.31934,51.60449-64.30078,72.02246A18.79755,18.79755,0,0,1,242.23926,481.49414Zm-52.4541-81.22363c11.79492,15.18652,48.29492,54.71875,63.44043,71.01074a3.77789,3.77789,0,0,0,5.5586-.00049c15.14453-16.2915,51.64453-55.82373,63.43847-71.00976,1.57264-2.0245,1.123-6.69378-4.2832-3.92579-.34056.173,1.76749-.77992-36.18555,16.12989a7.50423,7.50423,0,0,1-10.55176-6.85108l-.0039-126.92724a7.49974,7.49974,0,0,1,7.5-7.5l126.92578-.00391a7.50466,7.50466,0,0,1,6.85156,10.55176c-16.40417,36.81692-15.92623,35.7849-16.13086,36.186-2.62449,5.12969,1.63859,6.05808,3.92578,4.28418,15.19043-11.79736,54.71973-48.29589,71.01075-63.44091a3.77728,3.77728,0,0,0,0-5.55762c-16.29395-15.147-55.83008-51.65039-71.01075-63.43994-1.99088-1.54528-6.69742-1.12967-3.92578,4.28369.192.37635-.77978-1.76762,16.13086,36.18652a7.505,7.505,0,0,1-6.85156,10.55176l-126.92676.00342a7.50037,7.50037,0,0,1-7.5-7.5l-.0039-126.9253a7.50435,7.50435,0,0,1,10.55175-6.85156c36.74057,16.36916,35.83568,15.9507,36.18653,16.13037,5.12918,2.62424,6.05758-1.64018,4.2832-3.92578-11.792-15.18408-48.29395-54.71826-63.44043-71.01074a3.77788,3.77788,0,0,0-5.55859.00049c-15.14551,16.292-51.64746,55.82617-63.43848,71.00976-1.59739,2.05636-1.08885,6.68278,4.2832,3.92579.34056-.173-1.76749.77992,36.18555-16.12989a7.50416,7.50416,0,0,1,10.55176,6.85108l.0039,126.92724a7.49974,7.49974,0,0,1-7.5,7.5l-126.92578.00391a7.50466,7.50466,0,0,1-6.85156-10.55176c16.40417-36.81692,15.92623-35.7849,16.13086-36.186,2.62065-5.12218-1.63235-6.066-3.92578-4.28418-15.18067,11.78955-54.7168,48.293-71.01074,63.44043a3.77783,3.77783,0,0,0,0,5.5581c16.293,15.146,55.82714,51.64746,71.01074,63.43945,2.02121,1.57044,6.695,1.1255,3.92578-4.2832-.192-.37635.77978,1.76762-16.13086-36.18652a7.505,7.505,0,0,1,6.85156-10.55176l126.92676-.00391a7.50006,7.50006,0,0,1,7.5,7.5l.00391,126.92579a7.50389,7.50389,0,0,1-10.55176,6.85156c-36.74057-16.36916-35.83567-15.9507-36.18652-16.13037C188.93915,393.72055,188.01078,397.98491,189.78516,400.27051Z" data-name="Arrow-28"/></svg>